<?xml version="1.0" standalone="no"?>
<!DOCTYPE svg PUBLIC "-//W3C//DTD SVG 20010904//EN"
 "http://www.w3.org/TR/2001/REC-SVG-20010904/DTD/svg10.dtd">
<svg version="1.0" xmlns="http://www.w3.org/2000/svg"
 width="564.000000pt" height="564.000000pt" viewBox="0 0 564.000000 564.000000"
 preserveAspectRatio="xMidYMid meet">

<g transform="translate(0.000000,564.000000) scale(0.100000,-0.100000)"
fill="#000000" stroke="none">
<path d="M2718 4673 c34 -2 90 -2 125 0 34 2 6 3 -63 3 -69 0 -97 -1 -62 -3z"/>
<path d="M2568 4663 c7 -3 16 -2 19 1 4 3 -2 6 -13 5 -11 0 -14 -3 -6 -6z"/>
<path d="M2978 4663 c6 -2 18 -2 25 0 6 3 1 5 -13 5 -14 0 -19 -2 -12 -5z"/>
<path d="M2488 4653 c7 -3 16 -2 19 1 4 3 -2 6 -13 5 -11 0 -14 -3 -6 -6z"/>
<path d="M3048 4653 c6 -2 18 -2 25 0 6 3 1 5 -13 5 -14 0 -19 -2 -12 -5z"/>
<path d="M2428 4643 c7 -3 16 -2 19 1 4 3 -2 6 -13 5 -11 0 -14 -3 -6 -6z"/>
<path d="M3118 4643 c7 -3 16 -2 19 1 4 3 -2 6 -13 5 -11 0 -14 -3 -6 -6z"/>
<path d="M2577 4620 c-586 -74 -1084 -406 -1374 -914 -211 -369 -283 -827
-197 -1246 9 -41 16 -79 17 -85 1 -6 -60 -11 -162 -13 l-164 -3 7 -487 c4
-268 9 -488 11 -490 3 -3 249 15 308 23 38 5 38 5 63 -50 14 -30 27 -55 30
-55 2 0 48 29 102 65 l99 66 141 7 141 7 83 -63 c454 -343 1028 -455 1577
-307 225 61 475 188 642 327 40 33 54 38 97 38 82 0 692 -46 875 -66 50 -6 57
-5 57 11 0 20 -160 968 -164 972 -1 2 -52 3 -112 4 -60 0 -111 2 -115 4 -3 3
2 41 12 86 10 45 23 141 30 213 55 596 -199 1188 -676 1573 -229 185 -526 317
-835 370 -102 17 -398 25 -493 13z m292 -209 c82 -26 138 -60 194 -120 91 -98
136 -244 115 -376 -9 -60 -62 -185 -78 -185 -5 0 -8 21 -8 48 2 102 0 110 -34
126 -37 19 -109 21 -126 4 -7 -7 -12 -24 -12 -39 0 -23 5 -28 28 -31 l27 -3 3
-202 c1 -112 1 -203 -2 -203 -2 0 -20 7 -41 15 -30 13 -35 18 -25 30 10 12 10
15 -1 15 -11 0 -11 2 1 10 9 6 10 10 3 10 -8 0 -9 9 -3 30 6 21 5 30 -3 30 -7
0 -6 4 3 10 8 5 10 10 4 10 -6 0 -11 7 -11 15 0 8 5 15 11 15 6 0 4 5 -4 10
-8 5 -10 10 -4 10 16 0 12 43 -6 57 -8 7 -10 13 -4 13 6 0 11 18 12 40 2 31
-2 40 -15 40 -15 0 -14 2 3 15 18 14 17 14 -13 15 -18 0 -33 5 -33 10 0 6 -6
10 -14 10 -20 0 -27 57 -24 195 l3 120 -130 0 -130 0 -3 -77 -3 -78 -114 0
-115 0 0 -62 c-1 -50 -3 -59 -11 -44 -7 11 -10 57 -7 116 3 88 7 104 41 173
56 114 158 200 277 233 69 19 179 17 249 -5z m327 -101 c0 -9 -7 -16 -16 -16
-9 0 -17 7 -17 16 -1 9 6 16 16 16 9 0 17 -7 17 -16z m367 -201 c3 -12 -2 -16
-17 -16 -14 0 -22 6 -22 17 0 23 33 22 39 -1z m-798 -279 c-3 -5 -33 -10 -66
-10 -38 0 -58 4 -54 10 3 6 33 10 66 10 38 0 58 -4 54 -10z m755 -154 l0 -59
23 20 c52 48 119 57 175 23 42 -26 74 -25 97 0 25 27 84 64 92 56 3 -3 -5 -10
-19 -15 -30 -11 -98 -88 -98 -110 0 -9 -16 1 -43 27 -53 52 -99 63 -157 37
-44 -20 -52 -35 -19 -35 37 0 138 -61 175 -107 l36 -44 -28 8 c-44 12 -88 7
-132 -16 -91 -46 -132 -102 -132 -180 0 -55 14 -58 47 -10 41 61 94 111 144
136 24 12 45 21 46 19 2 -1 -7 -22 -18 -46 -23 -46 -28 -117 -16 -190 l8 -45
-25 60 c-26 61 -65 105 -92 105 -10 0 -13 -6 -10 -17 3 -10 8 -31 11 -48 l5
-30 -11 30 c-16 41 -16 41 -38 14 -33 -40 -27 -63 19 -76 39 -10 40 -9 35 11
-2 11 1 8 9 -9 8 -16 13 -31 12 -33 -2 -1 -16 4 -32 13 -62 32 -167 12 -202
-39 -32 -46 -29 -57 11 -44 17 6 37 15 43 19 13 11 106 0 99 -11 -3 -4 -18
-10 -34 -13 -38 -8 -100 -63 -117 -104 -8 -18 -14 -47 -14 -65 1 -32 1 -32 16
-13 26 36 75 85 94 95 17 9 18 5 19 -50 0 -32 5 -76 10 -97 10 -36 65 -133 76
-133 3 0 5 35 5 78 -1 92 33 212 59 212 24 0 62 -156 59 -243 l-2 -62 -3 60
c-6 102 -45 238 -63 219 -18 -20 -40 -126 -40 -192 0 -39 -4 -73 -9 -77 -19
-11 -79 79 -92 138 l-14 57 -41 0 c-38 0 -44 -4 -63 -36 -13 -21 -21 -52 -21
-78 0 -24 -3 -58 -6 -75 -6 -29 -9 -31 -50 -31 l-44 0 0 136 c0 151 -12 214
-40 209 -20 -4 -30 45 -30 146 0 33 -4 59 -10 59 -5 0 -10 7 -10 16 0 13 8 11
45 -10 l45 -27 0 211 c0 161 3 210 13 210 6 0 41 -11 77 -24 l65 -24 3 -201
c1 -110 6 -201 11 -201 4 0 22 5 39 11 25 9 30 14 23 27 -5 10 -9 143 -10 297
l-1 280 20 -30 c14 -22 20 -47 20 -89z m-1851 70 c29 -15 85 -74 93 -98 3 -9
18 -2 46 25 38 33 48 37 97 37 47 0 59 -4 90 -31 25 -22 35 -39 35 -60 0 -26
3 -29 35 -29 l35 0 0 -120 c0 -89 -3 -120 -12 -121 -10 0 -10 -2 0 -6 6 -2 12
-9 12 -14 0 -6 -4 -7 -10 -4 -5 3 -10 1 -10 -4 0 -6 4 -11 9 -11 5 0 8 -15 6
-32 -4 -42 -3 -40 -15 -33 -8 5 -7 11 1 21 7 8 7 14 1 14 -13 0 -25 -31 -15
-40 4 -4 25 -13 46 -20 21 -6 48 -26 63 -45 27 -36 44 -105 25 -105 -6 0 -11
5 -11 11 0 6 -7 8 -16 5 -8 -3 -13 -2 -10 3 6 8 -24 23 -74 36 -19 5 -14 -1
20 -26 24 -19 48 -33 52 -32 5 2 7 0 6 -5 -3 -13 13 -52 22 -52 5 0 7 -9 5
-20 -2 -11 2 -20 8 -20 7 0 6 -4 -3 -10 -11 -7 -11 -10 -2 -10 7 0 10 -4 7
-10 -3 -5 0 -10 7 -11 8 0 9 -2 2 -5 -6 -3 -9 -16 -6 -29 3 -18 0 -25 -11 -25
-8 0 -24 -3 -34 -6 -14 -5 -15 -4 -4 4 20 14 0 60 -47 107 l-37 37 -7 -54
c-11 -86 -24 -126 -54 -166 -48 -63 -64 -68 -64 -16 0 24 -4 34 -12 32 -7 -3
-13 -11 -13 -19 0 -8 -8 -13 -17 -11 -9 1 -22 -7 -28 -18 -6 -11 -15 -18 -20
-15 -5 3 -11 -16 -13 -42 -3 -27 -4 8 -2 77 2 100 7 139 25 193 20 57 25 66
37 55 30 -31 54 -122 54 -202 l-1 -79 21 19 c38 34 63 104 67 187 2 42 9 77
14 77 5 0 34 -25 64 -55 l54 -56 0 31 c0 72 -45 129 -126 159 l-49 19 39 7
c27 5 55 3 90 -8 27 -9 52 -15 54 -12 10 9 -36 71 -62 84 -61 29 -110 25 -188
-17 -4 -2 4 32 17 74 13 43 22 81 19 86 -3 5 -19 0 -36 -9 -31 -18 -60 -65
-72 -117 -13 -53 -17 -18 -6 42 10 50 10 68 -4 115 -9 31 -23 63 -32 71 -28
28 17 19 67 -13 48 -31 79 -62 127 -130 l31 -44 7 27 c9 38 -1 102 -21 132
-20 31 -97 81 -148 96 -27 8 -50 9 -77 2 l-37 -11 26 37 c14 21 39 46 56 56
16 11 41 26 55 35 15 9 42 20 60 24 l34 7 -23 19 c-16 14 -39 19 -79 19 -52 0
-58 -2 -97 -43 l-41 -43 -16 36 c-19 46 -77 91 -129 100 -49 9 -48 4 15 -77
24 -32 48 -71 52 -88 l7 -29 -28 18 c-39 25 -103 26 -140 2 l-29 -19 42 -12
c23 -7 62 -25 87 -39 l45 -27 -35 -35 c-47 -47 -75 -105 -81 -167 -6 -59 -13
-64 79 52 33 40 61 71 63 68 2 -2 -2 -23 -10 -48 -8 -24 -17 -61 -21 -81 -4
-28 -14 -41 -41 -57 -32 -19 -73 -85 -61 -98 3 -2 19 3 36 11 40 21 51 20 51
-4 0 -11 -20 -40 -44 -63 -43 -40 -50 -57 -47 -115 1 -20 3 -21 24 -11 12 7
28 20 35 31 22 31 33 20 31 -29 -2 -27 1 -91 4 -143 5 -62 4 -88 -2 -74 -5 12
-11 71 -13 133 -3 106 -4 111 -20 91 -9 -11 -21 -20 -27 -20 -5 0 -14 -8 -20
-17 -8 -16 -10 -15 -15 7 -16 67 -11 102 19 134 25 28 25 52 -1 42 -9 -3 -16
4 -20 19 -8 32 -24 32 -24 0 0 -22 -4 -25 -40 -25 -36 0 -40 3 -40 25 0 20 -5
25 -25 25 -20 0 -25 -5 -25 -25 0 -20 -5 -25 -25 -25 -23 0 -25 4 -25 46 l0
45 82 -2 c79 -2 82 -1 88 22 4 13 5 39 4 58 -1 18 2 28 6 21 4 -6 10 9 14 37
5 38 17 62 54 109 l49 60 -22 16 c-26 19 -115 47 -132 41 -19 -7 -16 10 6 33
32 35 76 48 123 36 23 -6 44 -9 46 -7 6 6 -20 49 -54 88 -19 20 -34 41 -34 46
0 5 -9 13 -20 16 -11 3 -20 10 -20 15 0 13 96 3 129 -14z m696 -11 c29 -9 41
-19 43 -35 3 -20 1 -22 -30 -17 -18 4 -57 9 -85 13 -49 6 -53 5 -53 -14 0 -12
-5 -24 -12 -28 -7 -5 -8 -3 -3 6 8 13 -14 11 -57 -5 -21 -8 -39 9 -41 40 -2
26 3 31 41 45 49 18 131 16 197 -5z m1604 -47 l-42 -43 37 -14 c20 -7 36 -20
36 -28 0 -10 -6 -13 -16 -9 -46 17 -66 18 -84 1 -27 -24 -27 -50 -1 -35 47 25
138 2 161 -40 10 -18 8 -20 -20 -20 -31 0 -130 -44 -130 -58 0 -4 13 -23 29
-42 35 -44 61 -94 60 -117 0 -10 -8 2 -16 26 -8 24 -34 63 -58 87 l-42 45 26
18 c34 24 98 51 122 51 27 0 23 13 -10 33 -36 21 -87 22 -125 2 -16 -9 -31
-13 -34 -10 -9 9 18 58 69 121 l50 63 -33 4 c-26 3 -23 4 14 5 l48 2 -41 -42z
m-1246 -55 c-7 -2 -19 -2 -25 0 -7 3 -2 5 12 5 14 0 19 -2 13 -5z m456 -135
c-1 -79 -3 -135 -6 -125 -6 22 -11 22 -34 -5 -10 -13 -18 -18 -19 -12 0 7 -9
14 -20 17 -18 5 -20 0 -20 -53 0 -67 -7 -90 -26 -90 -11 0 -14 -16 -14 -67 0
-61 -1 -66 -16 -52 -11 12 -17 44 -21 110 l-6 95 37 28 c34 25 43 50 20 52
-41 4 -44 13 -44 130 l0 114 85 0 85 0 -1 -142z m-561 28 c7 -35 -10 -286 -18
-281 -5 3 -11 -1 -13 -7 -3 -7 -6 -4 -7 7 -1 19 -2 18 -14 -3 -11 -21 -14 -22
-25 -8 -10 11 -18 13 -31 6 -13 -7 -21 -6 -27 2 -4 7 -10 80 -11 161 l-4 148
73 -3 c64 -3 74 -6 77 -22z m289 -123 c5 -13 -28 -13 -45 0 -9 7 -11 6 -6 -7
3 -9 10 -16 15 -16 5 0 9 -4 9 -10 0 -5 -7 -10 -15 -10 -8 0 -15 6 -15 13 0 6
-3 23 -7 36 -4 17 -3 22 5 17 7 -4 12 -2 12 3 0 6 -4 11 -10 11 -5 0 -10 5
-10 11 0 13 62 -32 67 -48z m-1147 -47 c0 -7 8 -24 18 -37 10 -13 26 -44 35
-68 l16 -43 -22 6 c-12 4 -39 10 -61 13 l-38 6 6 41 c10 61 26 107 37 101 5
-4 9 -12 9 -19z m1180 14 c0 -5 -12 -10 -27 -9 -25 0 -26 1 -8 9 27 12 35 12
35 0z m960 -56 c14 -19 41 -53 60 -76 l35 -40 6 33 c5 27 7 23 8 -24 1 -54 -1
-58 -19 -52 -19 6 -19 5 -5 -29 17 -41 18 -46 6 -65 -7 -11 -13 -9 -30 8 -21
21 -51 29 -51 13 0 -11 100 -112 111 -112 5 0 9 -5 9 -11 0 -5 -4 -7 -10 -4
-5 3 -10 -3 -10 -14 0 -12 5 -21 11 -21 6 0 3 -7 -5 -16 -21 -20 -20 -34 1
-34 9 0 13 -3 9 -7 -4 -5 -9 -6 -10 -3 -2 3 -10 -1 -19 -9 -11 -9 -17 -10 -17
-2 0 6 -10 11 -22 12 -18 0 -19 2 -6 7 14 6 13 9 -8 25 -24 18 -24 18 -24 -12
0 -16 -3 -36 -6 -45 -5 -13 4 -16 57 -18 l64 -2 -62 -3 c-54 -3 -63 -7 -63
-23 0 -17 9 -20 68 -23 l67 -3 -72 -2 c-65 -2 -71 -4 -66 -22 4 -16 16 -20 72
-23 l66 -3 -79 -2 -78 -2 8 68 c5 37 7 88 6 115 -1 26 2 47 6 47 4 -1 23 -14
42 -31 33 -28 35 -28 42 -9 13 35 -3 80 -43 117 -41 39 -55 66 -44 83 4 7 18
4 40 -9 25 -14 35 -16 38 -7 9 23 -23 73 -58 92 -29 15 -35 25 -41 64 -4 25
-13 60 -20 79 -17 41 -17 42 -1 35 6 -2 23 -21 37 -40z m-70 -42 c15 -65 9
-82 -29 -82 -16 0 -41 -4 -55 -10 -14 -5 -26 -7 -26 -4 0 3 19 44 42 90 45 91
48 91 68 6z m-690 -62 c0 -5 -7 -7 -15 -4 -8 4 -12 10 -9 15 6 11 24 2 24 -11z
m-695 -28 c-3 -3 -11 0 -18 7 -9 10 -8 11 6 5 10 -3 15 -9 12 -12z m1665 -67
c0 -43 -4 -75 -10 -75 -6 0 -10 -68 -10 -185 0 -160 -2 -184 -15 -179 -13 5
-15 43 -15 253 0 136 3 251 7 254 3 4 15 7 25 7 16 0 18 -9 18 -75z m-2367 18
c-7 -2 -19 -2 -25 0 -7 3 -2 5 12 5 14 0 19 -2 13 -5z m2097 -33 c0 -5 -4 -10
-10 -10 -5 0 -10 5 -10 10 0 6 5 10 10 10 6 0 10 -4 10 -10z m-2490 -189 c0
-118 3 -153 15 -164 12 -13 12 -15 -8 -19 -52 -9 -52 -10 -49 167 3 156 4 165
22 165 19 0 20 -8 20 -149z m478 87 c-12 -29 -26 -80 -33 -113 -8 -38 -13 -49
-14 -31 -1 25 -3 27 -17 15 -12 -10 -17 -10 -23 0 -5 7 -6 -11 -3 -41 2 -29 2
-51 -1 -48 -5 5 -11 56 -19 170 -4 52 3 80 20 80 9 0 35 7 57 14 22 8 43 12
47 10 3 -2 -3 -28 -14 -56z m-599 40 c24 -1 16 -3 -24 -7 -67 -7 -88 -4 -79
11 4 6 20 7 36 4 17 -3 47 -7 67 -8z m1125 -50 c8 -6 7 -8 -2 -8 -7 0 -11 -4
-7 -9 3 -5 1 -12 -5 -16 -6 -4 -9 12 -9 42 1 28 4 37 6 23 3 -14 10 -28 17
-32z m2019 -97 c-2 -144 -6 -160 -40 -161 -12 0 -19 281 -7 301 3 6 16 9 27 7
21 -3 22 -6 20 -147z m-158 118 c-71 -8 -81 -7 -72 8 3 4 36 6 74 4 l68 -5
-70 -7z m-460 0 c22 -6 40 -10 40 -8 0 1 9 -3 20 -8 16 -9 20 -20 19 -55 -4
-92 -14 -176 -24 -199 l-11 -24 6 25 c3 14 8 73 11 133 6 103 6 107 -14 107
-12 0 -24 5 -27 10 -3 6 -17 10 -30 10 l-24 0 15 -42 c17 -47 44 -181 43 -213
-1 -11 -9 21 -18 70 -18 91 -39 162 -53 180 -10 11 -10 25 0 25 4 0 25 -5 47
-11z m-1006 -63 c27 -17 -3 -137 -30 -120 -5 3 -9 27 -9 55 l0 49 -38 0 c-22
0 -72 -3 -113 -6 -70 -6 -75 -8 -77 -31 -1 -14 -11 -36 -22 -50 -11 -14 -20
-31 -20 -38 0 -21 -41 -140 -52 -150 -8 -7 -9 -4 -5 8 6 15 3 17 -13 12 -11
-4 -20 -2 -20 4 0 6 4 11 9 11 5 0 7 54 5 126 -3 70 -3 132 -1 138 5 13 364 6
386 -8z m163 -17 c40 1 69 -1 65 -5 -4 -4 -30 -7 -57 -5 -41 2 -49 -1 -44 -14
4 -9 1 -15 -7 -15 -12 0 -12 -2 0 -9 8 -5 10 -14 6 -21 -6 -9 -4 -11 4 -6 7 5
10 14 7 21 -8 22 11 30 61 27 l48 -4 2 -104 1 -104 -74 0 -74 0 -1 95 c-1 52
-2 101 -3 108 -1 14 -16 27 -31 27 -5 0 -3 -5 5 -10 12 -8 12 -10 -5 -11 -20
0 -20 0 0 -8 17 -7 17 -8 -8 -13 -18 -4 -27 -1 -28 8 -1 8 -2 18 -3 24 -1 5 6
18 14 29 13 19 15 19 32 4 14 -12 35 -16 90 -14z m-662 1 c0 -5 -2 -10 -4 -10
-3 0 -8 5 -11 10 -3 6 -1 10 4 10 6 0 11 -4 11 -10z m40 0 c0 -5 -5 -10 -11
-10 -5 0 -7 5 -4 10 3 6 8 10 11 10 2 0 4 -4 4 -10z m850 -61 c0 -52 -2 -60
-17 -57 -20 4 -21 45 -3 92 15 40 20 31 20 -35z m-823 2 c6 -9 9 -20 5 -25 -3
-6 -8 -3 -10 4 -7 21 -23 30 -54 30 -16 0 -28 4 -28 9 0 15 74 -1 87 -18z
m-117 -21 c-8 -5 -22 -10 -30 -10 -13 0 -13 1 0 10 8 5 22 10 30 10 13 0 13
-1 0 -10z m-937 -17 c-13 -2 -35 -2 -50 0 -16 2 -5 4 22 4 28 0 40 -2 28 -4z
m937 -3 c-8 -5 -22 -9 -30 -9 -10 0 -8 3 5 9 27 12 43 12 25 0z m-425 -85 c-8
-71 -19 -75 -28 -10 -3 22 -3 34 0 28 10 -26 23 -12 23 24 0 20 3 34 6 30 3
-3 3 -35 -1 -72z m2503 68 c-10 -2 -28 -2 -40 0 -13 2 -5 4 17 4 22 1 32 -1
23 -4z m-1971 -35 c-3 -8 -6 -5 -6 6 -1 11 2 17 5 13 3 -3 4 -12 1 -19z
m-1059 5 c-21 -2 -55 -2 -75 0 -21 2 -4 4 37 4 41 0 58 -2 38 -4z m1097 -13
c3 -5 1 -10 -4 -10 -6 0 -11 5 -11 10 0 6 2 10 4 10 3 0 8 -4 11 -10z m1928
-7 c-13 -2 -35 -2 -50 0 -16 2 -5 4 22 4 28 0 40 -2 28 -4z m-748 -13 c3 -5 1
-10 -4 -10 -6 0 -11 5 -11 10 0 6 2 10 4 10 3 0 8 -4 11 -10z m-2011 -53 c3 4
6 -1 6 -10 0 -9 -6 -17 -14 -17 -25 0 -46 12 -46 26 0 10 6 11 24 4 13 -5 27
-6 30 -3z m2011 3 c3 -5 1 -10 -4 -10 -6 0 -11 5 -11 10 0 6 2 10 4 10 3 0 8
-4 11 -10z m-1432 -17 c-7 -2 -19 -2 -25 0 -7 3 -2 5 12 5 14 0 19 -2 13 -5z
m44 -9 c-3 -3 -12 -4 -19 -1 -8 3 -5 6 6 6 11 1 17 -2 13 -5z m-779 -239 c-2
-25 -4 -25 -93 -25 -62 0 -85 3 -75 10 11 7 7 10 -20 11 -19 1 -38 1 -42 0 -5
0 -8 3 -8 9 0 8 45 13 187 18 51 2 53 1 51 -23z m445 13 c84 -1 99 -3 50 -5
-100 -5 -93 -23 9 -23 129 0 86 -9 -56 -12 -117 -2 -127 -3 -123 -20 4 -14 -1
-18 -25 -18 -16 0 -27 4 -23 9 3 5 -2 17 -11 25 -13 13 -13 16 -1 16 8 0 17
10 20 21 4 15 11 20 22 15 9 -3 71 -7 138 -8z m255 -9 c3 -8 10 -17 16 -21 8
-5 7 -8 -1 -8 -7 0 -13 -9 -13 -20 0 -15 -7 -20 -25 -20 -14 0 -24 3 -24 8 3
20 -2 32 -16 32 -14 0 -19 -12 -16 -32 0 -5 -3 -8 -9 -8 -9 0 -12 14 -12 60 0
11 0 21 1 23 1 1 22 2 48 2 31 -1 48 -6 51 -16z m227 13 c6 -4 9 -14 9 -22 -1
-8 -2 -25 -3 -37 -1 -29 -31 -31 -31 -3 0 15 -7 20 -27 21 l-28 1 25 7 c14 4
26 12 26 19 1 7 2 14 3 17 2 7 14 6 26 -3z m333 -40 l3 -42 -150 0 c-133 0
-150 2 -144 16 4 11 8 12 13 4 5 -7 16 -9 29 -5 37 11 134 13 165 2 32 -11 47
2 38 35 -5 20 14 40 33 35 6 -2 11 -22 13 -45z m392 -3 c0 -35 -3 -39 -26 -39
-14 0 -23 4 -19 10 10 16 -7 60 -24 61 -9 1 -5 4 9 8 45 13 60 3 60 -40z m385
41 c61 -1 105 -4 98 -6 -7 -3 -9 -12 -6 -20 4 -12 -13 -14 -101 -14 -99 0
-106 -1 -106 -20 0 -13 -7 -20 -20 -20 -15 0 -20 7 -20 24 0 22 -4 24 -32 21
-24 -3 -29 -2 -18 5 8 5 22 10 31 10 9 0 19 6 22 14 3 8 14 13 24 11 10 -2 68
-4 128 -5z m530 1 c34 -1 41 -5 41 -21 0 -16 -7 -20 -34 -20 -29 0 -34 -3 -29
-20 4 -17 0 -20 -24 -20 -26 0 -29 3 -29 35 0 33 -2 35 -32 36 l-33 1 30 7
c17 4 39 6 50 5 11 -1 38 -2 60 -3z m455 -15 c0 -24 -3 -25 -87 -29 -49 -3
-103 -8 -122 -12 -24 -6 -32 -4 -27 4 5 7 -3 11 -21 12 -16 0 -22 3 -13 6 8 4
20 12 25 19 9 12 37 15 198 22 44 2 47 0 47 -22z m-2983 8 c-3 -3 -12 -4 -19
-1 -8 3 -5 6 6 6 11 1 17 -2 13 -5z m179 -14 c0 -16 -7 -20 -33 -20 -52 0 -43
-28 10 -33 23 -2 6 -4 -38 -4 -44 0 -68 2 -52 4 42 7 34 33 -10 33 -34 1 -36
2 -20 14 14 11 15 15 5 19 -7 3 21 6 62 6 69 1 76 -1 76 -19z m567 13 c-13 -2
-33 -2 -45 0 -13 2 -3 4 22 4 25 0 35 -2 23 -4z m90 0 c-7 -2 -21 -2 -30 0
-10 3 -4 5 12 5 17 0 24 -2 18 -5z m275 0 c-21 -2 -55 -2 -75 0 -21 2 -4 4 37
4 41 0 58 -2 38 -4z m275 0 c-24 -2 -62 -2 -85 0 -24 2 -5 4 42 4 47 0 66 -2
43 -4z m80 0 c-7 -2 -19 -2 -25 0 -7 3 -2 5 12 5 14 0 19 -2 13 -5z m270 0
c-13 -2 -35 -2 -50 0 -16 2 -5 4 22 4 28 0 40 -2 28 -4z m90 0 c-7 -2 -21 -2
-30 0 -10 3 -4 5 12 5 17 0 24 -2 18 -5z m364 0 c-11 -3 -16 -11 -13 -19 4
-10 -2 -14 -18 -14 -19 0 -23 4 -19 20 4 15 13 20 37 19 18 -1 23 -3 13 -6z
m186 0 c-7 -2 -21 -2 -30 0 -10 3 -4 5 12 5 17 0 24 -2 18 -5z m265 0 c-10 -2
-28 -2 -40 0 -13 2 -5 4 17 4 22 1 32 -1 23 -4z m49 1 c-3 -3 -12 -4 -19 -1
-8 3 -5 6 6 6 11 1 17 -2 13 -5z m-1922 -24 c4 -6 -7 -10 -27 -9 -31 1 -32 1
-8 9 14 4 26 8 27 9 1 1 5 -3 8 -9z m180 0 c3 -5 -1 -10 -9 -10 -9 0 -16 5
-16 10 0 6 4 10 9 10 6 0 13 -4 16 -10z m202 -3 c3 -4 -35 -7 -86 -7 -51 0
-90 4 -87 9 6 10 163 8 173 -2z m203 -3 c0 -2 -19 -3 -42 -3 -39 1 -41 2 -13
8 28 7 55 4 55 -5z m400 5 c0 -5 -14 -9 -31 -9 -16 0 -28 4 -25 9 3 5 17 9 31
9 14 0 25 -4 25 -9z m-363 -5 c-3 -3 -12 -4 -19 -1 -8 3 -5 6 6 6 11 1 17 -2
13 -5z m40 0 c-3 -3 -12 -4 -19 -1 -8 3 -5 6 6 6 11 1 17 -2 13 -5z m1236 -1
c-7 -2 -19 -2 -25 0 -7 3 -2 5 12 5 14 0 19 -2 13 -5z m220 -40 c-24 -2 -62
-2 -85 0 -24 2 -5 4 42 4 47 0 66 -2 43 -4z m-2736 -92 c52 -24 76 -67 76
-136 0 -88 -63 -174 -165 -226 -63 -32 -203 -78 -262 -85 -28 -4 -58 -10 -66
-14 -8 -5 -40 -52 -70 -105 -74 -131 -131 -180 -168 -143 -31 31 -10 87 104
277 84 139 87 144 127 146 19 1 39 5 44 8 6 4 18 1 27 -6 16 -11 15 -16 -8
-60 -14 -26 -22 -47 -18 -47 27 0 164 45 199 66 63 37 84 69 82 125 -2 33 -8
50 -18 54 -13 5 -13 8 -2 14 23 15 -82 23 -143 12 -119 -22 -188 -70 -256
-178 -31 -49 -44 -62 -51 -52 -5 8 -9 23 -9 34 0 17 -2 18 -11 5 -17 -24 -2
75 17 112 24 47 111 129 170 160 76 41 147 57 259 57 78 0 109 -4 142 -18z
m1753 -98 c0 -14 2 -14 20 2 11 10 20 14 20 9 0 -6 -44 -100 -99 -210 -54
-109 -115 -237 -136 -284 -39 -87 -55 -114 -55 -91 0 8 -9 2 -21 -13 -21 -27
-45 -36 -36 -13 2 6 1 22 -4 35 l-8 22 -43 -30 c-56 -39 -135 -51 -174 -25
-25 16 -26 21 -22 79 14 169 199 338 296 270 12 -8 20 -20 17 -25 -4 -5 -4 -9
-1 -9 3 0 43 58 89 128 92 140 157 205 157 155z m-1309 -186 c38 -26 52 -60
22 -55 -12 2 -17 -2 -15 -14 2 -15 -5 -18 -45 -18 -65 0 -116 -16 -153 -47
-56 -47 -104 -173 -66 -173 16 0 85 65 145 138 47 58 76 75 104 60 26 -14 21
-46 -23 -137 -22 -46 -39 -86 -36 -88 2 -2 20 3 40 11 l37 15 -21 -29 c-12
-17 -26 -30 -31 -30 -6 0 -8 -4 -4 -10 7 -11 -46 -40 -73 -40 -26 0 -46 25
-39 50 3 11 4 20 2 20 -1 0 -29 -16 -61 -35 -65 -40 -140 -48 -168 -19 -35 35
-4 179 60 275 83 126 237 186 325 126z m393 -30 c14 -10 17 -23 14 -45 -2 -18
-3 -32 -1 -32 2 0 24 5 48 11 51 13 111 5 119 -16 3 -8 -18 -59 -47 -114 -58
-113 -56 -138 6 -96 l37 26 -10 -25 c-5 -13 -6 -26 -4 -29 9 -9 -62 -57 -95
-63 -72 -15 -105 76 -61 168 11 23 20 43 20 45 0 1 -16 -7 -36 -19 -41 -24
-63 -52 -101 -128 -31 -61 -60 -75 -94 -44 -31 28 -23 69 36 187 66 130 75
144 112 168 34 23 34 23 57 6z m1296 -12 c16 -14 20 -31 20 -75 0 -47 -7 -72
-39 -136 -22 -44 -58 -97 -80 -118 -35 -34 -48 -40 -96 -44 -55 -4 -55 -4 -56
24 0 16 -3 23 -6 17 -10 -26 -44 -6 -57 33 -7 24 17 121 44 174 25 49 76 108
115 132 38 24 125 20 155 -7z m430 5 c14 -9 16 -13 19 -44 1 -13 5 -13 36 0
47 19 124 19 132 -2 3 -9 -8 -34 -27 -61 -28 -39 -30 -44 -12 -39 12 4 23 2
28 -5 10 -17 -72 -89 -102 -89 -37 0 -57 27 -49 67 l6 35 -45 -31 c-30 -21
-59 -55 -86 -100 -44 -73 -80 -114 -80 -91 0 11 -3 11 -12 2 -17 -17 -28 -15
-28 4 0 8 -4 12 -10 9 -28 -17 -4 66 47 166 79 157 134 210 183 179z m638 -40
c17 -11 32 -27 32 -35 0 -9 -4 -14 -9 -10 -6 3 -13 -1 -18 -8 -5 -8 -33 -17
-66 -20 -74 -7 -117 -35 -150 -96 -65 -119 -4 -121 82 -3 49 69 94 100 116 82
22 -18 18 -44 -15 -110 -36 -71 -39 -96 -11 -80 28 14 33 13 22 -7 -20 -38
-61 -73 -85 -73 -26 0 -47 25 -39 48 7 18 -5 15 -43 -15 -41 -31 -124 -43
-150 -22 -35 29 5 189 66 266 70 89 195 127 268 83z m-2456 -506 c26 -8 49
-22 52 -31 8 -19 -1 -52 -19 -73 -8 -8 -15 -34 -17 -57 -2 -33 -6 -40 -16 -34
-8 5 -15 25 -15 46 -2 50 -22 55 -37 11 -12 -38 -17 -41 -38 -27 -10 6 -7 24
18 85 17 43 28 82 25 87 -8 12 -6 12 47 -7z m991 -61 c3 -43 7 -87 9 -98 5
-31 -28 -31 -36 1 -4 14 -25 50 -46 80 -22 29 -40 56 -40 59 0 14 41 2 50 -15
15 -28 28 -25 22 6 -4 23 9 43 29 44 4 0 9 -35 12 -77z m-817 9 c18 -12 22
-47 12 -104 -12 -69 -26 -83 -73 -74 -44 9 -51 24 -37 85 20 85 29 101 59 101
16 0 33 -4 39 -8z m684 -72 c22 -44 40 -81 40 -84 0 -12 -42 -13 -47 0 -8 22
-43 17 -43 -6 0 -11 -2 -20 -4 -20 -2 0 -11 -3 -20 -6 -14 -5 -16 4 -16 64 0
39 -4 82 -9 96 -11 27 -4 34 36 35 19 1 30 -14 63 -79z m-587 45 c0 -6 -4 -40
-8 -77 -6 -59 -5 -68 9 -68 9 0 16 -8 16 -18 0 -15 -6 -17 -35 -14 -19 2 -37
7 -39 11 -2 3 2 42 10 85 7 43 11 83 8 88 -4 5 4 8 17 6 13 -2 23 -8 22 -13z
m402 -72 c6 -58 9 -63 31 -63 17 0 24 -6 24 -19 0 -14 -9 -20 -37 -23 -21 -3
-39 -4 -41 -3 -1 1 -7 37 -12 80 -5 43 -15 84 -21 91 -8 9 -5 13 13 16 30 4
34 -4 43 -79z m-237 48 c-2 -11 -12 -15 -31 -13 -22 3 -27 -1 -27 -17 0 -16 6
-21 25 -21 35 0 33 -28 -2 -32 -39 -4 -39 -42 -1 -46 27 -3 56 -28 45 -38 -3
-4 -31 -3 -62 1 l-57 7 7 86 c4 48 9 89 10 92 2 3 24 4 50 2 36 -3 45 -8 43
-21z m150 -6 c25 -54 9 -95 -35 -95 -20 0 -23 -5 -23 -35 0 -28 -4 -35 -19
-35 -18 0 -20 9 -23 95 l-3 95 46 0 c39 0 47 -4 57 -25z"/>
<path d="M2802 4328 c-12 -12 -79 -13 -114 -2 -27 8 -21 -9 10 -28 20 -13 22
-18 9 -18 -15 0 -15 -3 -5 -20 9 -14 24 -20 50 -20 21 0 38 4 38 10 0 5 6 7
13 5 24 -9 117 -13 122 -5 2 4 -16 16 -40 26 -30 12 -42 21 -35 28 17 17 11
36 -13 36 -13 0 -28 -5 -35 -12z"/>
<path d="M3520 3509 l0 -100 29 21 c54 38 140 72 166 66 37 -9 30 7 -17 46
-59 48 -101 68 -143 68 l-35 0 0 -101z"/>
<path d="M3659 3382 c-72 -46 -73 -52 -27 -91 39 -33 40 -33 37 -10 -1 13 2
33 6 44 4 11 14 35 21 53 7 17 12 32 10 32 -1 0 -22 -13 -47 -28z"/>
<path d="M3448 3088 c-16 -5 -28 -16 -28 -23 0 -11 6 -11 30 3 16 9 30 20 30
25 0 4 -1 7 -2 6 -2 0 -15 -5 -30 -11z"/>
<path d="M3466 2962 c-2 -4 -1 -14 5 -22 7 -12 9 -10 9 8 0 23 -5 28 -14 14z"/>
<path d="M1908 3618 c-21 -12 -38 -26 -38 -30 0 -4 20 -8 45 -8 l45 0 0 -44
c0 -34 5 -47 23 -59 12 -8 34 -27 50 -42 l27 -28 0 80 0 81 -30 6 c-24 4 -32
12 -36 36 -8 37 -32 39 -86 8z"/>
<path d="M1638 3310 c-13 -22 -28 -40 -34 -40 -10 0 -54 -86 -54 -105 0 -4 14
7 30 24 17 16 39 33 50 36 13 4 21 18 25 43 3 20 8 47 11 60 7 33 -3 27 -28
-18z"/>
<path d="M1972 3271 c-18 -58 -17 -61 23 -48 39 11 44 30 19 65 -21 31 -29 28
-42 -17z"/>
<path d="M1531 3184 c0 -11 3 -14 6 -6 3 7 2 16 -1 19 -3 4 -6 -2 -5 -13z"/>
<path d="M1731 3300 c-6 -28 -11 -53 -11 -55 0 -3 16 -5 35 -5 25 0 35 4 35
15 0 16 -37 95 -44 95 -3 0 -9 -23 -15 -50z"/>
<path d="M3884 3290 c3 -16 9 -44 12 -60 6 -30 45 -60 79 -60 22 0 18 14 -15
49 -16 18 -39 48 -50 67 -27 42 -33 43 -26 4z"/>
<path d="M3777 3272 c-35 -68 -34 -74 11 -70 36 3 37 4 34 41 -2 21 -6 47 -11
59 -7 18 -11 15 -34 -30z"/>
<path d="M1733 2965 c0 -33 2 -45 4 -27 2 18 2 45 0 60 -2 15 -4 0 -4 -33z"/>
<path d="M1770 3005 c0 -8 2 -15 4 -15 2 0 6 7 10 15 3 8 1 15 -4 15 -6 0 -10
-7 -10 -15z"/>
<path d="M1685 2430 c3 -5 8 -10 11 -10 2 0 4 5 4 10 0 6 -5 10 -11 10 -5 0
-7 -4 -4 -10z"/>
<path d="M1980 2431 c0 -5 9 -7 20 -4 11 3 20 7 20 9 0 2 -9 4 -20 4 -11 0
-20 -4 -20 -9z"/>
<path d="M3280 2430 c0 -5 7 -10 15 -10 8 0 15 5 15 10 0 6 -7 10 -15 10 -8 0
-15 -4 -15 -10z"/>
<path d="M2985 1824 c-45 -23 -65 -44 -91 -96 -24 -47 -31 -88 -16 -88 20 0
94 76 126 129 20 32 36 61 36 65 0 11 -24 6 -55 -10z"/>
<path d="M3602 1845 c-54 -66 -115 -195 -92 -195 35 0 140 140 140 185 0 45
-16 48 -48 10z"/>
<path d="M2270 1361 c0 -24 26 -35 34 -14 8 19 -1 33 -20 33 -8 0 -14 -9 -14
-19z"/>
<path d="M2414 1318 c0 -13 -4 -40 -8 -60 -7 -31 -5 -38 8 -38 28 0 43 112 16
117 -10 2 -15 -5 -16 -19z"/>
<path d="M3088 1295 c3 -23 9 -35 19 -35 11 0 13 5 8 18 -4 9 -10 25 -12 35
-9 30 -19 18 -15 -18z"/>
<path d="M2808 1293 c6 -2 12 -16 12 -29 0 -15 6 -24 15 -24 10 0 15 10 15 30
0 26 -3 30 -27 29 -16 0 -22 -3 -15 -6z"/>
<path d="M3248 4613 c7 -3 16 -2 19 1 4 3 -2 6 -13 5 -11 0 -14 -3 -6 -6z"/>
<path d="M2000 4510 c-8 -5 -10 -10 -5 -10 6 0 17 5 25 10 8 5 11 10 5 10 -5
0 -17 -5 -25 -10z"/>
<path d="M1874 4444 c-18 -14 -18 -15 4 -4 12 6 22 13 22 15 0 8 -5 6 -26 -11z"/>
<path d="M1614 4268 l-19 -23 23 19 c21 18 27 26 19 26 -2 0 -12 -10 -23 -22z"/>
<path d="M3930 4276 c0 -2 8 -10 18 -17 15 -13 16 -12 3 4 -13 16 -21 21 -21
13z"/>
<path d="M1544 4208 l-29 -33 33 29 c30 28 37 36 29 36 -2 0 -16 -15 -33 -32z"/>
<path d="M4012 4205 c15 -16 29 -27 31 -24 3 2 -10 15 -27 28 l-31 24 27 -28z"/>
<path d="M4110 4107 c0 -2 15 -16 33 -33 l32 -29 -29 33 c-28 30 -36 37 -36
29z"/>
<path d="M1396 4062 c-22 -27 -24 -32 -7 -17 20 17 47 55 39 55 -2 0 -16 -17
-32 -38z"/>
<path d="M4200 4006 c0 -2 8 -10 18 -17 15 -13 16 -12 3 4 -13 16 -21 21 -21
13z"/>
<path d="M1329 3983 c-13 -16 -12 -17 4 -4 9 7 17 15 17 17 0 8 -8 3 -21 -13z"/>
<path d="M4240 3956 c0 -2 8 -10 18 -17 15 -13 16 -12 3 4 -13 16 -21 21 -21
13z"/>
<path d="M1289 3933 c-13 -16 -12 -17 4 -4 9 7 17 15 17 17 0 8 -8 3 -21 -13z"/>
<path d="M1079 3584 c-11 -26 -18 -49 -16 -51 2 -2 14 19 25 47 11 27 19 50
16 50 -3 0 -14 -21 -25 -46z"/>
<path d="M1046 3505 c-9 -26 -7 -32 5 -12 6 10 9 21 6 23 -2 3 -7 -2 -11 -11z"/>
<path d="M1021 3439 c-6 -18 -9 -34 -7 -36 2 -2 9 10 15 28 6 18 9 34 7 36 -2
2 -9 -10 -15 -28z"/>
<path d="M1001 3374 c0 -11 3 -14 6 -6 3 7 2 16 -1 19 -3 4 -6 -2 -5 -13z"/>
<path d="M981 3304 c0 -11 3 -14 6 -6 3 7 2 16 -1 19 -3 4 -6 -2 -5 -13z"/>
<path d="M971 3264 c0 -11 3 -14 6 -6 3 7 2 16 -1 19 -3 4 -6 -2 -5 -13z"/>
<path d="M961 3224 c0 -11 3 -14 6 -6 3 7 2 16 -1 19 -3 4 -6 -2 -5 -13z"/>
<path d="M951 3174 c0 -11 3 -14 6 -6 3 7 2 16 -1 19 -3 4 -6 -2 -5 -13z"/>
<path d="M942 3120 c0 -14 2 -19 5 -12 2 6 2 18 0 25 -3 6 -5 1 -5 -13z"/>
<path d="M4611 3094 c0 -11 3 -14 6 -6 3 7 2 16 -1 19 -3 4 -6 -2 -5 -13z"/>
<path d="M932 3035 c0 -16 2 -22 5 -12 2 9 2 23 0 30 -3 6 -5 -1 -5 -18z"/>
<path d="M4621 3014 c0 -11 3 -14 6 -6 3 7 2 16 -1 19 -3 4 -6 -2 -5 -13z"/>
<path d="M924 2825 c0 -77 2 -107 3 -67 2 40 2 103 0 140 -2 37 -3 4 -3 -73z"/>
<path d="M4634 2815 c0 -55 1 -76 3 -47 2 29 2 74 0 100 -2 26 -3 2 -3 -53z"/>
<path d="M4622 2620 c0 -14 2 -19 5 -12 2 6 2 18 0 25 -3 6 -5 1 -5 -13z"/>
<path d="M932 2605 c0 -16 2 -22 5 -12 2 9 2 23 0 30 -3 6 -5 -1 -5 -18z"/>
<path d="M941 2534 c0 -11 3 -14 6 -6 3 7 2 16 -1 19 -3 4 -6 -2 -5 -13z"/>
<path d="M951 2474 c0 -11 3 -14 6 -6 3 7 2 16 -1 19 -3 4 -6 -2 -5 -13z"/>
<path d="M961 2424 c0 -11 3 -14 6 -6 3 7 2 16 -1 19 -3 4 -6 -2 -5 -13z"/>
<path d="M4591 2424 c0 -11 3 -14 6 -6 3 7 2 16 -1 19 -3 4 -6 -2 -5 -13z"/>
<path d="M4821 2294 c0 -11 3 -14 6 -6 3 7 2 16 -1 19 -3 4 -6 -2 -5 -13z"/>
<path d="M4842 2200 c0 -14 4 -38 8 -55 7 -27 8 -27 8 -5 0 14 -4 39 -8 55 -7
27 -8 27 -8 5z"/>
<path d="M4862 2085 c0 -16 2 -22 5 -12 2 9 2 23 0 30 -3 6 -5 -1 -5 -18z"/>
<path d="M654 1950 c0 -69 1 -97 3 -62 2 34 2 90 0 125 -2 34 -3 6 -3 -63z"/>
<path d="M4872 2020 c0 -14 2 -19 5 -12 2 6 2 18 0 25 -3 6 -5 1 -5 -13z"/>
<path d="M4882 1960 c0 -19 2 -27 5 -17 2 9 2 25 0 35 -3 9 -5 1 -5 -18z"/>
<path d="M4902 1830 c0 -14 2 -19 5 -12 2 6 2 18 0 25 -3 6 -5 1 -5 -13z"/>
<path d="M4911 1774 c0 -11 3 -14 6 -6 3 7 2 16 -1 19 -3 4 -6 -2 -5 -13z"/>
<path d="M4921 1714 c0 -11 3 -14 6 -6 3 7 2 16 -1 19 -3 4 -6 -2 -5 -13z"/>
<path d="M4931 1654 c0 -11 3 -14 6 -6 3 7 2 16 -1 19 -3 4 -6 -2 -5 -13z"/>
<path d="M4941 1594 c0 -11 3 -14 6 -6 3 7 2 16 -1 19 -3 4 -6 -2 -5 -13z"/>
<path d="M4951 1534 c0 -11 3 -14 6 -6 3 7 2 16 -1 19 -3 4 -6 -2 -5 -13z"/>
<path d="M4961 1474 c0 -11 3 -14 6 -6 3 7 2 16 -1 19 -3 4 -6 -2 -5 -13z"/>
<path d="M4971 1424 c0 -11 3 -14 6 -6 3 7 2 16 -1 19 -3 4 -6 -2 -5 -13z"/>
<path d="M1398 1393 c7 -3 16 -2 19 1 4 3 -2 6 -13 5 -11 0 -14 -3 -6 -6z"/>
<path d="M1478 1393 c12 -2 30 -2 40 0 9 3 -1 5 -23 4 -22 0 -30 -2 -17 -4z"/>
<path d="M1558 1393 c6 -2 18 -2 25 0 6 3 1 5 -13 5 -14 0 -19 -2 -12 -5z"/>
<path d="M3943 1374 l-28 -26 31 20 c18 13 52 22 85 25 l54 3 -57 2 c-49 2
-61 -2 -85 -24z"/>
<path d="M662 1360 c0 -19 2 -27 5 -17 2 9 2 25 0 35 -3 9 -5 1 -5 -18z"/>
<path d="M4178 1383 c12 -2 32 -2 45 0 12 2 2 4 -23 4 -25 0 -35 -2 -22 -4z"/>
<path d="M4982 1370 c0 -14 2 -19 5 -12 2 6 2 18 0 25 -3 6 -5 1 -5 -13z"/>
<path d="M1625 1360 c10 -11 20 -20 23 -20 3 0 -3 9 -13 20 -10 11 -20 20 -23
20 -3 0 3 -9 13 -20z"/>
<path d="M4318 1373 c12 -2 30 -2 40 0 9 3 -1 5 -23 4 -22 0 -30 -2 -17 -4z"/>
<path d="M4443 1363 c9 -2 23 -2 30 0 6 3 -1 5 -18 5 -16 0 -22 -2 -12 -5z"/>
<path d="M4569 1357 c5 -5 19 -7 32 -5 20 3 19 5 -9 9 -20 3 -29 2 -23 -4z"/>
<path d="M953 1353 c9 -2 25 -2 35 0 9 3 1 5 -18 5 -19 0 -27 -2 -17 -5z"/>
<path d="M853 1343 c15 -2 37 -2 50 0 12 2 0 4 -28 4 -27 0 -38 -2 -22 -4z"/>
<path d="M4683 1343 c9 -2 23 -2 30 0 6 3 -1 5 -18 5 -16 0 -22 -2 -12 -5z"/>
<path d="M738 1333 c12 -2 30 -2 40 0 9 3 -1 5 -23 4 -22 0 -30 -2 -17 -4z"/>
<path d="M1040 1331 c0 -6 4 -13 10 -16 6 -3 7 1 4 9 -7 18 -14 21 -14 7z"/>
<path d="M4783 1333 c9 -2 23 -2 30 0 6 3 -1 5 -18 5 -16 0 -22 -2 -12 -5z"/>
<path d="M4883 1323 c9 -2 25 -2 35 0 9 3 1 5 -18 5 -19 0 -27 -2 -17 -5z"/>
<path d="M1200 1299 c-22 -18 -22 -19 -3 -10 12 6 25 16 28 21 9 15 3 12 -25
-11z"/>
<path d="M1081 1243 c-1 -17 16 -25 25 -12 4 7 3 9 -4 5 -5 -3 -13 0 -15 6 -4
9 -6 10 -6 1z"/>
<path d="M1790 1246 c0 -3 9 -10 20 -16 11 -6 20 -8 20 -6 0 3 -9 10 -20 16
-11 6 -20 8 -20 6z"/>
<path d="M3620 1170 c-9 -6 -10 -10 -3 -10 6 0 15 5 18 10 8 12 4 12 -15 0z"/>
<path d="M1977 1139 c7 -7 15 -10 18 -7 3 3 -2 9 -12 12 -14 6 -15 5 -6 -5z"/>
<path d="M2298 1023 c7 -3 16 -2 19 1 4 3 -2 6 -13 5 -11 0 -14 -3 -6 -6z"/>
<path d="M2413 993 c9 -2 23 -2 30 0 6 3 -1 5 -18 5 -16 0 -22 -2 -12 -5z"/>
<path d="M3118 993 c6 -2 18 -2 25 0 6 3 1 5 -13 5 -14 0 -19 -2 -12 -5z"/>
<path d="M2478 983 c6 -2 18 -2 25 0 6 3 1 5 -13 5 -14 0 -19 -2 -12 -5z"/>
<path d="M3063 983 c9 -2 23 -2 30 0 6 3 -1 5 -18 5 -16 0 -22 -2 -12 -5z"/>
<path d="M2558 973 c6 -2 18 -2 25 0 6 3 1 5 -13 5 -14 0 -19 -2 -12 -5z"/>
<path d="M2988 973 c7 -3 16 -2 19 1 4 3 -2 6 -13 5 -11 0 -14 -3 -6 -6z"/>
<path d="M2648 963 c23 -2 61 -2 85 0 23 2 4 4 -43 4 -47 0 -66 -2 -42 -4z"/>
<path d="M2848 963 c17 -2 47 -2 65 0 17 2 3 4 -33 4 -36 0 -50 -2 -32 -4z"/>
</g>
</svg>
